# xmcd
#
# Track frame offsets:
#	150
#	14450
#	26375
#	41185
#	55680
#	69315
#	84480
#	104215
#	119460
#	135645
#	153525
#	166095
#	180875
#	197250
#	209865
#	225190
#	239665
#
# Disc length: 3447 seconds
#
# Revision: 1
# Processed by: cddbd v1.5.1PL0 Copyright (c) Steve Scherf et al.
# Submitted via: EasyCDDAExtractor 6.5.7.1
#
DISCID=e00d7511
DTITLE=Oswaldir e Carlos Magrão - Ruas e Luas
DYEAR=1900
DGENRE=Gaúcha
TTITLE0=Ruas e Luas
TTITLE1=A Gringa
TTITLE2=Vá Embora Tristeza
TTITLE3=Os Cardeais
TTITLE4=Rock no Quintal
TTITLE5=Tetinha
TTITLE6=Estrada Velha
TTITLE7=Morenaça
TTITLE8=Adeus Mariana
TTITLE9=Cantiga para um Amor Ausente
TTITLE10=Dança da Esperança
TTITLE11=Um Apito
TTITLE12=Santa helena da Serra
TTITLE13=Surungo no Campo Fundo
TTITLE14=De Tanto Tocar Vanerão
TTITLE15=Versos Guitarra e Caminho
TTITLE16=A Trote
EXTD=
EXTT0=
EXTT1=
EXTT2=
EXTT3=
EXTT4=
EXTT5=
EXTT6=
EXTT7=
EXTT8=
EXTT9=
EXTT10=
EXTT11=
EXTT12=
EXTT13=
EXTT14=
EXTT15=
EXTT16=
PLAYORDER=
